#!OML:ASF X:\für Bonn\!DataBase\2005_08_10_Bjorn_Final\c3d\bjorn.ASF
:FULLY-SPECIFIED
:DEGREES
57
root 1.39722 19.1607 6.82331 -1982.08 -22.4542 179.197
lowerback 26.5027 6.71001 -4.83101
upperback 22.3982 1.47122 -3.16215
thorax 10.2172 -2.064 -1.5006
lowerneck 2.11856 -4.4936 -10.909
upperneck 10.9139 -7.44705 11.7942
head 3.70868 -3.81509 5.19219
rclavicle -3.33958e-014 -3.10104e-014
rhumerus -19.5709 -19.2277 -88.4491
rradius 28.4908
rwrist 15.4858
rhand -13.365 8.83943
rfingers 7.12502
rthumb 12.7413 -20.7518
lclavicle -3.33958e-014 -3.10104e-014
lhumerus 24.4586 -5.3098 68.8041
lradius 20.2257
lwrist -21.1745
lhand -30.1606 -2.22881
lfingers 7.12502
lthumb -3.47256 747.723
rfemur -373.08 -1.58817 371.437
rtibia 48.4645
rfoot -10.562 14.5706
rtoes 2.52095
lfemur -14.9237 -0.0523809 -11.7828
ltibia 18.6072
lfoot -0.43241 -0.313089
ltoes -20.0587
58
root 1.36083 19.1576 6.87183 -1982.03 -22.0483 179.205
lowerback 27.0295 6.75333 -4.5072
upperback 22.5939 1.39199 -2.98804
thorax 10.2232 -2.13018 -1.49274
lowerneck 2.29478 -4.54854 -11.1736
upperneck 10.5033 -7.48842 11.8895
head 3.57543 -3.84235 5.26963
rclavicle 4.45278e-014 5.56597e-015
rhumerus -19.2905 -18.8591 -88.3427
rradius 28.416
rwrist 15.1113
rhand -14.0871 9.05354
rfingers 7.12502
rthumb 12.0451 -20.5798
lclavicle 4.45278e-014 5.56597e-015
lhumerus 24.9148 -8.15055 67.1392
lradius 21.7498
lwrist -17.0009
lhand -31.6311 -1.00019
lfingers 7.12502
lthumb -4.89249 748.923
rfemur -373.577 -2.26579 371.213
rtibia 48.3108
rfoot -10.8454 14.3575
rtoes 1.18271
lfemur -15.2048 0.00186976 -11.8832
ltibia 19.0196
lfoot -0.62591 -0.00286203
ltoes -19.9565
59
root 1.32477 19.153 6.92024 -1981.97 -21.6528 179.215
lowerback 27.5565 6.79088 -4.14776
upperback 22.7836 1.31679 -2.80798
thorax 10.2269 -2.189 -1.49651
lowerneck 2.42094 -4.62319 -11.3822
upperneck 10.1546 -7.55839 11.9584
head 3.46994 -3.88078 5.3268
rclavicle 9.70069e-014 9.93923e-014
rhumerus -19.002 -18.4654 -88.2553
rradius 28.3997
rwrist 14.6184
rhand -14.8551 9.11756
rfingers 7.12502
rthumb 11.3045 -20.5578
lclavicle 9.70069e-014 9.93923e-014
lhumerus 25.3727 -11.0624 65.2833
lradius 23.4645
lwrist -12.7589
lhand -32.9558 0.185431
lfingers 7.12502
lthumb -6.17154 750.076
rfemur -374.086 -2.97021 370.997
rtibia 48.103
rfoot -11.0789 14.1971
rtoes 0.119481
lfemur -15.536 0.0508794 -11.9789
ltibia 19.4754
lfoot -0.82581 0.277997
ltoes -19.9033
60
root 1.28926 19.1471 6.96868 -1981.9 -21.2545 179.223
lowerback 28.0707 6.8309 -3.75647
upperback 22.9864 1.24926 -2.6173
thorax 10.256 -2.24283 -1.5074
lowerneck 2.55371 -4.71314 -11.6602
upperneck 9.76813 -7.65402 12.1147
head 3.3612 -3.93136 5.42245
rclavicle 4.13472e-014 -1.27222e-014
rhumerus -18.6826 -18.1598 -88.148
rradius 28.3725
rwrist 14.2352
rhand -15.7111 9.23211
rfingers 7.12502
rthumb 10.4789 -20.4867
lclavicle 4.13472e-014 -1.27222e-014
lhumerus 25.8794 -13.9609 63.2809
lradius 25.3323
lwrist -8.60169
lhand -34.1124 1.30256
lfingers 7.12502
lthumb -7.28811 751.157
rfemur -374.602 -3.63299 370.798
rtibia 47.8515
rfoot -11.2201 14.0227
rtoes -0.572555
lfemur -15.8915 0.10671 -12.0738
ltibia 19.9721
lfoot -1.04273 0.56518
ltoes -19.8653
61
root 1.25461 19.1399 7.01771 -1981.83 -20.8799 179.198
lowerback 28.5877 6.86725 -3.35707
upperback 23.2208 1.16506 -2.41909
thorax 10.3256 -2.31044 -1.51371
lowerneck 2.58831 -4.81676 -11.9861
upperneck 9.39408 -7.76176 12.3139
head 3.27806 -3.98417 5.53631
rclavicle 3.4191e-014 7.03698e-014
rhumerus -18.2741 -17.8885 -88.0424
rradius 28.3374
rwrist 13.8993
rhand -16.5877 9.28325
rfingers 7.12502
rthumb 9.63316 -20.4765
lclavicle 3.4191e-014 7.03698e-014
lhumerus 26.4767 -16.6804 61.1987
lradius 27.3128
lwrist -4.63054
lhand -35.1366 2.45759
lfingers 7.12502
lthumb -8.27656 752.275
rfemur -375.105 -4.29952 370.587
rtibia 47.5629
rfoot -11.4302 13.8059
rtoes -1.36974
lfemur -16.2637 0.136545 -12.2029
ltibia 20.4965
lfoot -1.25111 0.843609
ltoes -19.9645
